<svg xmlns="http://www.w3.org/2000/svg" viewBox="0 0 1024 1024" width="1024" height="1024" role="img" aria-label="Interference app icon (light)">
  <title>Interference</title>
  <rect x="0" y="0" width="1024" height="1024" rx="224" ry="224" fill="#fafaf7"/>
  <g transform="translate(212,212) scale(6)" stroke="#0a0a0a" fill="#0a0a0a">
    <defs>
      <clipPath id="ai-clip-l"><circle cx="50" cy="50" r="48"/></clipPath>
    </defs>
    <g clip-path="url(#ai-clip-l)" fill="none" stroke-width="1">
      <circle cx="34" cy="50" r="5.2"/>
      <circle cx="34" cy="50" r="10.4"/>
      <circle cx="34" cy="50" r="15.6"/>
      <circle cx="34" cy="50" r="20.8"/>
      <circle cx="34" cy="50" r="26"/>
      <circle cx="34" cy="50" r="31.2"/>
      <circle cx="34" cy="50" r="36.4"/>
      <circle cx="34" cy="50" r="41.6"/>
      <circle cx="34" cy="50" r="46.8"/>
      <circle cx="66" cy="50" r="5.2"/>
      <circle cx="66" cy="50" r="10.4"/>
      <circle cx="66" cy="50" r="15.6"/>
      <circle cx="66" cy="50" r="20.8"/>
      <circle cx="66" cy="50" r="26"/>
      <circle cx="66" cy="50" r="31.2"/>
      <circle cx="66" cy="50" r="36.4"/>
      <circle cx="66" cy="50" r="41.6"/>
      <circle cx="66" cy="50" r="46.8"/>
    </g>
    <circle cx="34" cy="50" r="2.4"/>
    <circle cx="66" cy="50" r="2.4"/>
    <circle cx="50" cy="50" r="48" fill="none" stroke-width="1"/>
  </g>
</svg>
