<svg xmlns="http://www.w3.org/2000/svg" viewBox="0 0 460 110" width="460" height="110" role="img" aria-label="Interference">
  <title>Interference</title>
  <defs>
    <clipPath id="lk-clip"><circle cx="50" cy="50" r="48"/></clipPath>
  </defs>

  <g transform="translate(7,7)">
    <g clip-path="url(#lk-clip)" fill="none" stroke="currentColor" stroke-width="1">
      <circle cx="34" cy="50" r="5.2"/>
      <circle cx="34" cy="50" r="10.4"/>
      <circle cx="34" cy="50" r="15.6"/>
      <circle cx="34" cy="50" r="20.8"/>
      <circle cx="34" cy="50" r="26"/>
      <circle cx="34" cy="50" r="31.2"/>
      <circle cx="34" cy="50" r="36.4"/>
      <circle cx="34" cy="50" r="41.6"/>
      <circle cx="34" cy="50" r="46.8"/>
      <circle cx="66" cy="50" r="5.2"/>
      <circle cx="66" cy="50" r="10.4"/>
      <circle cx="66" cy="50" r="15.6"/>
      <circle cx="66" cy="50" r="20.8"/>
      <circle cx="66" cy="50" r="26"/>
      <circle cx="66" cy="50" r="31.2"/>
      <circle cx="66" cy="50" r="36.4"/>
      <circle cx="66" cy="50" r="41.6"/>
      <circle cx="66" cy="50" r="46.8"/>
    </g>
    <circle cx="34" cy="50" r="2.4" fill="currentColor"/>
    <circle cx="66" cy="50" r="2.4" fill="currentColor"/>
    <circle cx="50" cy="50" r="48" fill="none" stroke="currentColor" stroke-width="1"/>
  </g>

  <g transform="translate(132,0)" fill="currentColor">
    <text x="0" y="55"
      font-family="'Helvetica Neue', Helvetica, Arial, sans-serif"
      font-weight="500" font-size="30" letter-spacing="4.8">INTERFERENCE</text>
  </g>
</svg>
