<svg xmlns="http://www.w3.org/2000/svg" viewBox="0 0 180 180" width="180" height="180" role="img" aria-label="Interference">
  <title>Interference</title>
  <rect width="180" height="180" fill="#fafaf7"/>
  <g transform="translate(30,30) scale(1.2)" stroke="#0a0a0a" fill="#0a0a0a">
    <defs>
      <clipPath id="ati-clip"><circle cx="50" cy="50" r="48"/></clipPath>
    </defs>
    <g clip-path="url(#ati-clip)" fill="none" stroke-width="1">
      <circle cx="34" cy="50" r="5.2"/><circle cx="34" cy="50" r="10.4"/>
      <circle cx="34" cy="50" r="15.6"/><circle cx="34" cy="50" r="20.8"/>
      <circle cx="34" cy="50" r="26"/><circle cx="34" cy="50" r="31.2"/>
      <circle cx="34" cy="50" r="36.4"/><circle cx="34" cy="50" r="41.6"/>
      <circle cx="34" cy="50" r="46.8"/>
      <circle cx="66" cy="50" r="5.2"/><circle cx="66" cy="50" r="10.4"/>
      <circle cx="66" cy="50" r="15.6"/><circle cx="66" cy="50" r="20.8"/>
      <circle cx="66" cy="50" r="26"/><circle cx="66" cy="50" r="31.2"/>
      <circle cx="66" cy="50" r="36.4"/><circle cx="66" cy="50" r="41.6"/>
      <circle cx="66" cy="50" r="46.8"/>
    </g>
    <circle cx="34" cy="50" r="2.4"/>
    <circle cx="66" cy="50" r="2.4"/>
    <circle cx="50" cy="50" r="48" fill="none" stroke-width="1"/>
  </g>
</svg>
